<mxfile host="app.diagrams.net" agent="Mozilla/5.0 (Windows NT 10.0; Win64; x64) AppleWebKit/537.36 (KHTML, like Gecko) Chrome/133.0.0.0 Safari/537.36" version="26.1.0">
  <diagram name="Страница — 1" id="WS1tYyeIjO3YxDQ77gIm">
    <mxGraphModel dx="1050" dy="1743" grid="1" gridSize="10" guides="1" tooltips="1" connect="1" arrows="1" fold="1" page="1" pageScale="1" pageWidth="827" pageHeight="1169" math="0" shadow="0">
      <root>
        <mxCell id="0" />
        <mxCell id="1" parent="0" />
        <mxCell id="RvWR-JM56vbjrbiaglGF-1" value="" style="rounded=0;whiteSpace=wrap;html=1;labelBackgroundColor=none;" vertex="1" parent="1">
          <mxGeometry x="120" y="-1040" width="600" height="480" as="geometry" />
        </mxCell>
        <mxCell id="RvWR-JM56vbjrbiaglGF-2" style="edgeStyle=orthogonalEdgeStyle;rounded=0;orthogonalLoop=1;jettySize=auto;html=1;exitX=0.5;exitY=1;exitDx=0;exitDy=0;" edge="1" parent="1" source="RvWR-JM56vbjrbiaglGF-1" target="RvWR-JM56vbjrbiaglGF-1">
          <mxGeometry relative="1" as="geometry" />
        </mxCell>
        <mxCell id="RvWR-JM56vbjrbiaglGF-5" value="Гость" style="shape=umlActor;verticalLabelPosition=bottom;verticalAlign=top;html=1;outlineConnect=0;" vertex="1" parent="1">
          <mxGeometry x="50" y="-960" width="30" height="60" as="geometry" />
        </mxCell>
        <mxCell id="RvWR-JM56vbjrbiaglGF-6" value="Пользователь" style="shape=umlActor;verticalLabelPosition=bottom;verticalAlign=top;html=1;outlineConnect=0;" vertex="1" parent="1">
          <mxGeometry x="50" y="-790" width="30" height="60" as="geometry" />
        </mxCell>
        <mxCell id="RvWR-JM56vbjrbiaglGF-7" value="Администратор" style="shape=umlActor;verticalLabelPosition=bottom;verticalAlign=top;html=1;outlineConnect=0;" vertex="1" parent="1">
          <mxGeometry x="750" y="-800" width="30" height="60" as="geometry" />
        </mxCell>
        <mxCell id="RvWR-JM56vbjrbiaglGF-8" value="Регистрация" style="ellipse;whiteSpace=wrap;html=1;" vertex="1" parent="1">
          <mxGeometry x="140" y="-960" width="120" height="40" as="geometry" />
        </mxCell>
        <mxCell id="RvWR-JM56vbjrbiaglGF-9" value="Авторизация" style="ellipse;whiteSpace=wrap;html=1;" vertex="1" parent="1">
          <mxGeometry x="230" y="-820" width="120" height="40" as="geometry" />
        </mxCell>
        <mxCell id="RvWR-JM56vbjrbiaglGF-10" value="&lt;font style=&quot;font-size: 8px;&quot;&gt;Просмотр информации о квартплате&lt;/font&gt;" style="ellipse;whiteSpace=wrap;html=1;" vertex="1" parent="1">
          <mxGeometry x="330" y="-740" width="130" height="40" as="geometry" />
        </mxCell>
        <mxCell id="RvWR-JM56vbjrbiaglGF-11" value="Ввод данных счетчиков" style="ellipse;whiteSpace=wrap;html=1;" vertex="1" parent="1">
          <mxGeometry x="160" y="-700" width="120" height="40" as="geometry" />
        </mxCell>
        <mxCell id="RvWR-JM56vbjrbiaglGF-12" value="Расчет квартплаты" style="ellipse;whiteSpace=wrap;html=1;" vertex="1" parent="1">
          <mxGeometry x="150" y="-640" width="120" height="40" as="geometry" />
        </mxCell>
        <mxCell id="RvWR-JM56vbjrbiaglGF-13" value="Ввод данных" style="ellipse;whiteSpace=wrap;html=1;" vertex="1" parent="1">
          <mxGeometry x="300" y="-1010" width="120" height="40" as="geometry" />
        </mxCell>
        <mxCell id="RvWR-JM56vbjrbiaglGF-14" value="Проверка на корректность" style="ellipse;whiteSpace=wrap;html=1;" vertex="1" parent="1">
          <mxGeometry x="490" y="-1040" width="120" height="40" as="geometry" />
        </mxCell>
        <mxCell id="RvWR-JM56vbjrbiaglGF-15" value="Вывод ошибки" style="ellipse;whiteSpace=wrap;html=1;" vertex="1" parent="1">
          <mxGeometry x="600" y="-960" width="120" height="40" as="geometry" />
        </mxCell>
        <mxCell id="RvWR-JM56vbjrbiaglGF-18" value="" style="endArrow=none;html=1;rounded=0;entryX=0;entryY=0.5;entryDx=0;entryDy=0;" edge="1" parent="1" target="RvWR-JM56vbjrbiaglGF-8">
          <mxGeometry width="50" height="50" relative="1" as="geometry">
            <mxPoint x="80" y="-930" as="sourcePoint" />
            <mxPoint x="130" y="-980" as="targetPoint" />
          </mxGeometry>
        </mxCell>
        <mxCell id="RvWR-JM56vbjrbiaglGF-19" value="" style="endArrow=classic;html=1;rounded=0;entryX=0;entryY=0.5;entryDx=0;entryDy=0;exitX=1;exitY=0.5;exitDx=0;exitDy=0;dashed=1;" edge="1" parent="1" source="RvWR-JM56vbjrbiaglGF-8" target="RvWR-JM56vbjrbiaglGF-13">
          <mxGeometry width="50" height="50" relative="1" as="geometry">
            <mxPoint x="240" y="-940" as="sourcePoint" />
            <mxPoint x="290" y="-990" as="targetPoint" />
          </mxGeometry>
        </mxCell>
        <mxCell id="RvWR-JM56vbjrbiaglGF-20" value="" style="endArrow=classic;html=1;rounded=0;entryX=0;entryY=0.5;entryDx=0;entryDy=0;exitX=1;exitY=0.5;exitDx=0;exitDy=0;dashed=1;" edge="1" parent="1" source="RvWR-JM56vbjrbiaglGF-13" target="RvWR-JM56vbjrbiaglGF-14">
          <mxGeometry width="50" height="50" relative="1" as="geometry">
            <mxPoint x="380" y="-970" as="sourcePoint" />
            <mxPoint x="420" y="-1010" as="targetPoint" />
          </mxGeometry>
        </mxCell>
        <mxCell id="RvWR-JM56vbjrbiaglGF-21" value="" style="endArrow=classic;html=1;rounded=0;entryX=1;entryY=0.5;entryDx=0;entryDy=0;exitX=0.5;exitY=0;exitDx=0;exitDy=0;dashed=1;" edge="1" parent="1" source="RvWR-JM56vbjrbiaglGF-15" target="RvWR-JM56vbjrbiaglGF-14">
          <mxGeometry width="50" height="50" relative="1" as="geometry">
            <mxPoint x="390" y="-800" as="sourcePoint" />
            <mxPoint x="440" y="-850" as="targetPoint" />
          </mxGeometry>
        </mxCell>
        <mxCell id="RvWR-JM56vbjrbiaglGF-22" value="" style="endArrow=none;html=1;rounded=0;entryX=0;entryY=0.5;entryDx=0;entryDy=0;" edge="1" parent="1" source="RvWR-JM56vbjrbiaglGF-6" target="RvWR-JM56vbjrbiaglGF-9">
          <mxGeometry width="50" height="50" relative="1" as="geometry">
            <mxPoint x="390" y="-800" as="sourcePoint" />
            <mxPoint x="440" y="-850" as="targetPoint" />
          </mxGeometry>
        </mxCell>
        <mxCell id="RvWR-JM56vbjrbiaglGF-23" value="" style="endArrow=none;html=1;rounded=0;entryX=0;entryY=0.5;entryDx=0;entryDy=0;" edge="1" parent="1" source="RvWR-JM56vbjrbiaglGF-6" target="RvWR-JM56vbjrbiaglGF-10">
          <mxGeometry width="50" height="50" relative="1" as="geometry">
            <mxPoint x="90" y="-813" as="sourcePoint" />
            <mxPoint x="150" y="-865" as="targetPoint" />
          </mxGeometry>
        </mxCell>
        <mxCell id="RvWR-JM56vbjrbiaglGF-24" value="" style="endArrow=none;html=1;rounded=0;entryX=0;entryY=0.5;entryDx=0;entryDy=0;" edge="1" parent="1" source="RvWR-JM56vbjrbiaglGF-6" target="RvWR-JM56vbjrbiaglGF-11">
          <mxGeometry width="50" height="50" relative="1" as="geometry">
            <mxPoint x="100" y="-803" as="sourcePoint" />
            <mxPoint x="160" y="-855" as="targetPoint" />
          </mxGeometry>
        </mxCell>
        <mxCell id="RvWR-JM56vbjrbiaglGF-25" value="" style="endArrow=none;html=1;rounded=0;entryX=0;entryY=0.5;entryDx=0;entryDy=0;" edge="1" parent="1" target="RvWR-JM56vbjrbiaglGF-12">
          <mxGeometry width="50" height="50" relative="1" as="geometry">
            <mxPoint x="70" y="-710" as="sourcePoint" />
            <mxPoint x="170" y="-845" as="targetPoint" />
          </mxGeometry>
        </mxCell>
        <mxCell id="RvWR-JM56vbjrbiaglGF-27" value="&lt;font style=&quot;font-size: 9px;&quot;&gt;Изменение формулы квартплаты&lt;/font&gt;" style="ellipse;whiteSpace=wrap;html=1;" vertex="1" parent="1">
          <mxGeometry x="540" y="-700" width="120" height="40" as="geometry" />
        </mxCell>
        <mxCell id="RvWR-JM56vbjrbiaglGF-28" value="&lt;font style=&quot;font-size: 8px;&quot;&gt;Просмотр информации пользователей&lt;/font&gt;" style="ellipse;whiteSpace=wrap;html=1;" vertex="1" parent="1">
          <mxGeometry x="570" y="-850" width="120" height="40" as="geometry" />
        </mxCell>
        <mxCell id="RvWR-JM56vbjrbiaglGF-29" value="Удаление пользователей" style="ellipse;whiteSpace=wrap;html=1;" vertex="1" parent="1">
          <mxGeometry x="430" y="-970" width="120" height="40" as="geometry" />
        </mxCell>
        <mxCell id="RvWR-JM56vbjrbiaglGF-30" value="&lt;font style=&quot;font-size: 8px;&quot;&gt;Изменение информации пользователей&lt;/font&gt;" style="ellipse;whiteSpace=wrap;html=1;" vertex="1" parent="1">
          <mxGeometry x="350" y="-920" width="125" height="40" as="geometry" />
        </mxCell>
        <mxCell id="RvWR-JM56vbjrbiaglGF-31" value="Добавление пользователей" style="ellipse;whiteSpace=wrap;html=1;" vertex="1" parent="1">
          <mxGeometry x="345" y="-840" width="120" height="40" as="geometry" />
        </mxCell>
        <mxCell id="RvWR-JM56vbjrbiaglGF-32" value="" style="endArrow=none;html=1;rounded=0;exitX=1;exitY=0.5;exitDx=0;exitDy=0;" edge="1" parent="1" source="RvWR-JM56vbjrbiaglGF-9" target="RvWR-JM56vbjrbiaglGF-7">
          <mxGeometry width="50" height="50" relative="1" as="geometry">
            <mxPoint x="390" y="-800" as="sourcePoint" />
            <mxPoint x="440" y="-850" as="targetPoint" />
          </mxGeometry>
        </mxCell>
        <mxCell id="RvWR-JM56vbjrbiaglGF-33" value="" style="endArrow=none;html=1;rounded=0;exitX=1;exitY=0.5;exitDx=0;exitDy=0;" edge="1" parent="1" source="RvWR-JM56vbjrbiaglGF-10">
          <mxGeometry width="50" height="50" relative="1" as="geometry">
            <mxPoint x="450" y="-775" as="sourcePoint" />
            <mxPoint x="750" y="-761" as="targetPoint" />
          </mxGeometry>
        </mxCell>
        <mxCell id="RvWR-JM56vbjrbiaglGF-34" value="" style="endArrow=none;html=1;rounded=0;entryX=1;entryY=0.5;entryDx=0;entryDy=0;" edge="1" parent="1" target="RvWR-JM56vbjrbiaglGF-28">
          <mxGeometry width="50" height="50" relative="1" as="geometry">
            <mxPoint x="740" y="-780" as="sourcePoint" />
            <mxPoint x="440" y="-850" as="targetPoint" />
          </mxGeometry>
        </mxCell>
        <mxCell id="RvWR-JM56vbjrbiaglGF-35" value="" style="endArrow=none;html=1;rounded=0;entryX=1;entryY=0.5;entryDx=0;entryDy=0;" edge="1" parent="1" source="RvWR-JM56vbjrbiaglGF-7" target="RvWR-JM56vbjrbiaglGF-27">
          <mxGeometry width="50" height="50" relative="1" as="geometry">
            <mxPoint x="750" y="-770" as="sourcePoint" />
            <mxPoint x="700" y="-815" as="targetPoint" />
          </mxGeometry>
        </mxCell>
        <mxCell id="RvWR-JM56vbjrbiaglGF-36" value="" style="endArrow=classic;html=1;rounded=0;entryX=1;entryY=0.5;entryDx=0;entryDy=0;exitX=0.5;exitY=0;exitDx=0;exitDy=0;dashed=1;" edge="1" parent="1" source="RvWR-JM56vbjrbiaglGF-28" target="RvWR-JM56vbjrbiaglGF-29">
          <mxGeometry width="50" height="50" relative="1" as="geometry">
            <mxPoint x="600" y="-955" as="sourcePoint" />
            <mxPoint x="570" y="-1005" as="targetPoint" />
          </mxGeometry>
        </mxCell>
        <mxCell id="RvWR-JM56vbjrbiaglGF-37" value="" style="endArrow=classic;html=1;rounded=0;entryX=1;entryY=0.5;entryDx=0;entryDy=0;exitX=0;exitY=0;exitDx=0;exitDy=0;dashed=1;" edge="1" parent="1" source="RvWR-JM56vbjrbiaglGF-28" target="RvWR-JM56vbjrbiaglGF-30">
          <mxGeometry width="50" height="50" relative="1" as="geometry">
            <mxPoint x="521" y="-795.5" as="sourcePoint" />
            <mxPoint x="475" y="-914.5" as="targetPoint" />
          </mxGeometry>
        </mxCell>
        <mxCell id="RvWR-JM56vbjrbiaglGF-38" value="" style="endArrow=classic;html=1;rounded=0;entryX=1;entryY=0.5;entryDx=0;entryDy=0;exitX=0;exitY=0.5;exitDx=0;exitDy=0;dashed=1;" edge="1" parent="1" source="RvWR-JM56vbjrbiaglGF-28" target="RvWR-JM56vbjrbiaglGF-31">
          <mxGeometry width="50" height="50" relative="1" as="geometry">
            <mxPoint x="616" y="-816" as="sourcePoint" />
            <mxPoint x="570" y="-935" as="targetPoint" />
          </mxGeometry>
        </mxCell>
        <mxCell id="RvWR-JM56vbjrbiaglGF-39" value="" style="endArrow=classic;html=1;rounded=0;entryX=0;entryY=1;entryDx=0;entryDy=0;exitX=0.5;exitY=0;exitDx=0;exitDy=0;dashed=1;" edge="1" parent="1" source="RvWR-JM56vbjrbiaglGF-9" target="RvWR-JM56vbjrbiaglGF-13">
          <mxGeometry width="50" height="50" relative="1" as="geometry">
            <mxPoint x="260" y="-840" as="sourcePoint" />
            <mxPoint x="310" y="-890" as="targetPoint" />
          </mxGeometry>
        </mxCell>
        <mxCell id="RvWR-JM56vbjrbiaglGF-40" value="БД" style="shape=umlActor;verticalLabelPosition=bottom;verticalAlign=top;html=1;outlineConnect=0;" vertex="1" parent="1">
          <mxGeometry x="390" y="-540" width="30" height="60" as="geometry" />
        </mxCell>
        <mxCell id="RvWR-JM56vbjrbiaglGF-41" value="Изменение данных" style="ellipse;whiteSpace=wrap;html=1;" vertex="1" parent="1">
          <mxGeometry x="350" y="-650" width="120" height="40" as="geometry" />
        </mxCell>
        <mxCell id="RvWR-JM56vbjrbiaglGF-42" value="" style="endArrow=none;html=1;rounded=0;exitX=0.5;exitY=0;exitDx=0;exitDy=0;exitPerimeter=0;entryX=0.5;entryY=1;entryDx=0;entryDy=0;" edge="1" parent="1" source="RvWR-JM56vbjrbiaglGF-40" target="RvWR-JM56vbjrbiaglGF-41">
          <mxGeometry width="50" height="50" relative="1" as="geometry">
            <mxPoint x="390" y="-650" as="sourcePoint" />
            <mxPoint x="440" y="-700" as="targetPoint" />
          </mxGeometry>
        </mxCell>
        <mxCell id="RvWR-JM56vbjrbiaglGF-43" value="&lt;font style=&quot;font-size: 10px;&quot;&gt;include&lt;/font&gt;" style="text;html=1;align=center;verticalAlign=middle;whiteSpace=wrap;rounded=0;rotation=310;sketch=1;curveFitting=1;jiggle=2;" vertex="1" parent="1">
          <mxGeometry x="240" y="-980" width="60" height="30" as="geometry" />
        </mxCell>
        <mxCell id="RvWR-JM56vbjrbiaglGF-45" value="&lt;font style=&quot;font-size: 10px;&quot;&gt;include&lt;/font&gt;" style="text;html=1;align=center;verticalAlign=middle;whiteSpace=wrap;rounded=0;rotation=335;sketch=1;curveFitting=1;jiggle=2;" vertex="1" parent="1">
          <mxGeometry x="410" y="-1020" width="60" height="30" as="geometry" />
        </mxCell>
        <mxCell id="RvWR-JM56vbjrbiaglGF-46" value="&lt;font style=&quot;font-size: 10px;&quot;&gt;include&lt;/font&gt;" style="text;html=1;align=center;verticalAlign=middle;whiteSpace=wrap;rounded=0;rotation=280;sketch=1;curveFitting=1;jiggle=2;" vertex="1" parent="1">
          <mxGeometry x="260" y="-890" width="60" height="30" as="geometry" />
        </mxCell>
        <mxCell id="RvWR-JM56vbjrbiaglGF-47" value="&lt;font style=&quot;font-size: 10px;&quot;&gt;include&lt;/font&gt;" style="text;html=1;align=center;verticalAlign=middle;whiteSpace=wrap;rounded=0;rotation=50;sketch=1;curveFitting=1;jiggle=2;" vertex="1" parent="1">
          <mxGeometry x="570" y="-915" width="60" height="30" as="geometry" />
        </mxCell>
        <mxCell id="RvWR-JM56vbjrbiaglGF-49" value="&lt;font style=&quot;font-size: 10px;&quot;&gt;include&lt;/font&gt;" style="text;html=1;align=center;verticalAlign=middle;whiteSpace=wrap;rounded=0;rotation=30;sketch=1;curveFitting=1;jiggle=2;" vertex="1" parent="1">
          <mxGeometry x="510" y="-890" width="60" height="30" as="geometry" />
        </mxCell>
        <mxCell id="RvWR-JM56vbjrbiaglGF-50" value="&lt;font style=&quot;font-size: 10px;&quot;&gt;include&lt;/font&gt;" style="text;html=1;align=center;verticalAlign=middle;whiteSpace=wrap;rounded=0;rotation=355;sketch=1;curveFitting=1;jiggle=2;" vertex="1" parent="1">
          <mxGeometry x="490" y="-850" width="60" height="30" as="geometry" />
        </mxCell>
        <mxCell id="RvWR-JM56vbjrbiaglGF-51" value="&lt;span style=&quot;font-size: 10px;&quot;&gt;extend&lt;/span&gt;" style="text;html=1;align=center;verticalAlign=middle;whiteSpace=wrap;rounded=0;rotation=53;sketch=1;curveFitting=1;jiggle=2;" vertex="1" parent="1">
          <mxGeometry x="620" y="-1005" width="60" height="30" as="geometry" />
        </mxCell>
      </root>
    </mxGraphModel>
  </diagram>
</mxfile>
